<mxfile host="app.diagrams.net" agent="Mozilla/5.0 (Windows NT 10.0; Win64; x64) AppleWebKit/537.36 (KHTML, like Gecko) Chrome/132.0.0.0 Safari/537.36" version="26.0.10">
  <diagram name="Page-1" id="b5b7bab2-c9e2-2cf4-8b2a-24fd1a2a6d21">
    <mxGraphModel dx="1594" dy="1904" grid="1" gridSize="10" guides="1" tooltips="1" connect="1" arrows="1" fold="1" page="1" pageScale="1" pageWidth="827" pageHeight="1169" background="none" math="0" shadow="0">
      <root>
        <mxCell id="0" />
        <mxCell id="1" parent="0" />
        <mxCell id="6e0c8c40b5770093-47" value="" style="shape=folder;fontStyle=1;spacingTop=10;tabWidth=123;tabHeight=24;tabPosition=left;html=1;rounded=0;shadow=0;comic=0;labelBackgroundColor=none;strokeWidth=1;fontFamily=Verdana;fontSize=10;align=center;" parent="1" vertex="1">
          <mxGeometry x="553.5" y="774.5" width="332" height="130" as="geometry" />
        </mxCell>
        <mxCell id="6e0c8c40b5770093-49" value="package" style="shape=folder;fontStyle=1;spacingTop=10;tabWidth=50;tabHeight=17;tabPosition=left;html=1;rounded=0;shadow=0;comic=0;labelBackgroundColor=none;strokeWidth=1;fontFamily=Verdana;fontSize=10;align=center;" parent="1" vertex="1">
          <mxGeometry x="571.5" y="814.5" width="112" height="70" as="geometry" />
        </mxCell>
        <mxCell id="6e0c8c40b5770093-50" value="package" style="shape=folder;fontStyle=1;spacingTop=10;tabWidth=50;tabHeight=17;tabPosition=left;html=1;rounded=0;shadow=0;comic=0;labelBackgroundColor=none;strokeWidth=1;fontFamily=Verdana;fontSize=10;align=center;" parent="1" vertex="1">
          <mxGeometry x="740.5" y="814.5" width="112" height="70" as="geometry" />
        </mxCell>
        <mxCell id="vzI2WXNl3NZPLttFvZEj-8" value="" style="shape=folder;fontStyle=1;spacingTop=10;tabWidth=50;tabHeight=17;tabPosition=left;html=1;rounded=0;shadow=0;comic=0;labelBackgroundColor=none;strokeWidth=1;fontFamily=Verdana;fontSize=10;align=center;" vertex="1" parent="1">
          <mxGeometry x="390" y="310" width="220" height="160" as="geometry" />
        </mxCell>
        <mxCell id="vzI2WXNl3NZPLttFvZEj-9" value="&lt;span style=&quot;font-family: Verdana; font-size: 10px; font-weight: 700;&quot;&gt;Back-End&lt;/span&gt;" style="text;html=1;align=center;verticalAlign=middle;resizable=0;points=[];autosize=1;strokeColor=none;fillColor=none;" vertex="1" parent="1">
          <mxGeometry x="390" y="335.5" width="80" height="30" as="geometry" />
        </mxCell>
        <mxCell id="vzI2WXNl3NZPLttFvZEj-10" value="EXPRESS.JS/TS" style="html=1;dropTarget=0;whiteSpace=wrap;" vertex="1" parent="1">
          <mxGeometry x="430" y="365.5" width="145.5" height="65.5" as="geometry" />
        </mxCell>
        <mxCell id="vzI2WXNl3NZPLttFvZEj-11" value="" style="shape=module;jettyWidth=8;jettyHeight=4;" vertex="1" parent="vzI2WXNl3NZPLttFvZEj-10">
          <mxGeometry x="1" width="20" height="20" relative="1" as="geometry">
            <mxPoint x="-27" y="7" as="offset" />
          </mxGeometry>
        </mxCell>
        <mxCell id="vzI2WXNl3NZPLttFvZEj-12" value="" style="shape=folder;fontStyle=1;spacingTop=10;tabWidth=50;tabHeight=17;tabPosition=left;html=1;rounded=0;shadow=0;comic=0;labelBackgroundColor=none;strokeWidth=1;fontFamily=Verdana;fontSize=10;align=center;" vertex="1" parent="1">
          <mxGeometry x="360" y="520" width="230" height="100" as="geometry" />
        </mxCell>
        <mxCell id="vzI2WXNl3NZPLttFvZEj-13" value="&lt;span style=&quot;font-family: Verdana; font-size: 10px; font-weight: 700;&quot;&gt;Base de datos&lt;/span&gt;" style="text;html=1;align=center;verticalAlign=middle;resizable=0;points=[];autosize=1;strokeColor=none;fillColor=none;" vertex="1" parent="1">
          <mxGeometry x="359.5" y="540.5" width="100" height="30" as="geometry" />
        </mxCell>
        <mxCell id="vzI2WXNl3NZPLttFvZEj-14" value="Mysql" style="html=1;dropTarget=0;whiteSpace=wrap;" vertex="1" parent="1">
          <mxGeometry x="459.5" y="570" width="112" height="45.5" as="geometry" />
        </mxCell>
        <mxCell id="vzI2WXNl3NZPLttFvZEj-15" value="" style="shape=module;jettyWidth=8;jettyHeight=4;" vertex="1" parent="vzI2WXNl3NZPLttFvZEj-14">
          <mxGeometry x="1" width="20" height="20" relative="1" as="geometry">
            <mxPoint x="-27" y="7" as="offset" />
          </mxGeometry>
        </mxCell>
        <mxCell id="vzI2WXNl3NZPLttFvZEj-16" value="" style="shape=folder;fontStyle=1;spacingTop=10;tabWidth=50;tabHeight=17;tabPosition=left;html=1;rounded=0;shadow=0;comic=0;labelBackgroundColor=none;strokeWidth=1;fontFamily=Verdana;fontSize=10;align=center;" vertex="1" parent="1">
          <mxGeometry x="715.5" y="320" width="170" height="310" as="geometry" />
        </mxCell>
        <mxCell id="vzI2WXNl3NZPLttFvZEj-17" value="&lt;span style=&quot;font-family: Verdana; font-size: 10px; font-weight: 700;&quot;&gt;Servicios&lt;/span&gt;" style="text;html=1;align=center;verticalAlign=middle;resizable=0;points=[];autosize=1;strokeColor=none;fillColor=none;" vertex="1" parent="1">
          <mxGeometry x="729" y="340" width="70" height="30" as="geometry" />
        </mxCell>
        <mxCell id="vzI2WXNl3NZPLttFvZEj-18" value="SSO&amp;nbsp;" style="html=1;dropTarget=0;whiteSpace=wrap;" vertex="1" parent="1">
          <mxGeometry x="740.5" y="449.5" width="120" height="51" as="geometry" />
        </mxCell>
        <mxCell id="vzI2WXNl3NZPLttFvZEj-19" value="" style="shape=module;jettyWidth=8;jettyHeight=4;" vertex="1" parent="vzI2WXNl3NZPLttFvZEj-18">
          <mxGeometry x="1" width="20" height="20" relative="1" as="geometry">
            <mxPoint x="-27" y="7" as="offset" />
          </mxGeometry>
        </mxCell>
        <mxCell id="vzI2WXNl3NZPLttFvZEj-28" value="CAPCHA" style="html=1;dropTarget=0;whiteSpace=wrap;" vertex="1" parent="1">
          <mxGeometry x="735.5" y="380" width="120" height="51" as="geometry" />
        </mxCell>
        <mxCell id="vzI2WXNl3NZPLttFvZEj-29" value="" style="shape=module;jettyWidth=8;jettyHeight=4;" vertex="1" parent="vzI2WXNl3NZPLttFvZEj-28">
          <mxGeometry x="1" width="20" height="20" relative="1" as="geometry">
            <mxPoint x="-27" y="7" as="offset" />
          </mxGeometry>
        </mxCell>
        <mxCell id="vzI2WXNl3NZPLttFvZEj-30" value="Pasarela&amp;nbsp;&lt;br&gt;pago" style="html=1;dropTarget=0;whiteSpace=wrap;" vertex="1" parent="1">
          <mxGeometry x="740.5" y="519.5" width="120" height="51" as="geometry" />
        </mxCell>
        <mxCell id="vzI2WXNl3NZPLttFvZEj-31" value="" style="shape=module;jettyWidth=8;jettyHeight=4;" vertex="1" parent="vzI2WXNl3NZPLttFvZEj-30">
          <mxGeometry x="1" width="20" height="20" relative="1" as="geometry">
            <mxPoint x="-27" y="7" as="offset" />
          </mxGeometry>
        </mxCell>
        <mxCell id="vzI2WXNl3NZPLttFvZEj-3" value="&lt;span style=&quot;font-family: Verdana; font-size: 10px; font-weight: 700;&quot;&gt;Front-End&lt;/span&gt;" style="text;html=1;align=center;verticalAlign=middle;resizable=0;points=[];autosize=1;strokeColor=none;fillColor=none;" vertex="1" parent="1">
          <mxGeometry x="490" y="105.5" width="80" height="30" as="geometry" />
        </mxCell>
        <mxCell id="6e0c8c40b5770093-4" value="" style="shape=folder;fontStyle=1;spacingTop=10;tabWidth=50;tabHeight=17;tabPosition=left;html=1;rounded=0;shadow=0;comic=0;labelBackgroundColor=none;strokeWidth=1;fontFamily=Verdana;fontSize=10;align=center;" parent="1" vertex="1">
          <mxGeometry x="490" y="90" width="220" height="160" as="geometry" />
        </mxCell>
        <mxCell id="vzI2WXNl3NZPLttFvZEj-1" value="HTML/CSS/TS" style="html=1;dropTarget=0;whiteSpace=wrap;" vertex="1" parent="1">
          <mxGeometry x="530" y="145.5" width="145.5" height="65.5" as="geometry" />
        </mxCell>
        <mxCell id="vzI2WXNl3NZPLttFvZEj-2" value="" style="shape=module;jettyWidth=8;jettyHeight=4;" vertex="1" parent="vzI2WXNl3NZPLttFvZEj-1">
          <mxGeometry x="1" width="20" height="20" relative="1" as="geometry">
            <mxPoint x="-27" y="7" as="offset" />
          </mxGeometry>
        </mxCell>
        <mxCell id="vzI2WXNl3NZPLttFvZEj-33" value="" style="ellipse;whiteSpace=wrap;html=1;align=center;aspect=fixed;fillColor=none;strokeColor=none;resizable=0;perimeter=centerPerimeter;rotatable=0;allowArrows=0;points=[];outlineConnect=1;" vertex="1" parent="1">
          <mxGeometry x="680" y="440" width="10" height="10" as="geometry" />
        </mxCell>
        <mxCell id="vzI2WXNl3NZPLttFvZEj-34" value="" style="endArrow=none;dashed=1;html=1;dashPattern=1 3;strokeWidth=2;rounded=0;strokeColor=none;" edge="1" parent="1">
          <mxGeometry width="50" height="50" relative="1" as="geometry">
            <mxPoint x="660" y="470" as="sourcePoint" />
            <mxPoint x="710" y="420" as="targetPoint" />
          </mxGeometry>
        </mxCell>
        <mxCell id="vzI2WXNl3NZPLttFvZEj-40" value="" style="endArrow=block;dashed=1;endFill=0;endSize=12;html=1;rounded=0;exitX=0.457;exitY=0.952;exitDx=0;exitDy=0;exitPerimeter=0;" edge="1" parent="1" source="vzI2WXNl3NZPLttFvZEj-1" target="vzI2WXNl3NZPLttFvZEj-10">
          <mxGeometry width="160" relative="1" as="geometry">
            <mxPoint x="540" y="250" as="sourcePoint" />
            <mxPoint x="700" y="250" as="targetPoint" />
            <Array as="points">
              <mxPoint x="560" y="290" />
            </Array>
          </mxGeometry>
        </mxCell>
        <mxCell id="vzI2WXNl3NZPLttFvZEj-42" value="" style="endArrow=open;endFill=1;endSize=12;html=1;rounded=0;entryX=0;entryY=0.5;entryDx=0;entryDy=0;" edge="1" parent="1" source="vzI2WXNl3NZPLttFvZEj-10" target="vzI2WXNl3NZPLttFvZEj-30">
          <mxGeometry width="160" relative="1" as="geometry">
            <mxPoint x="540" y="350" as="sourcePoint" />
            <mxPoint x="700" y="350" as="targetPoint" />
          </mxGeometry>
        </mxCell>
        <mxCell id="vzI2WXNl3NZPLttFvZEj-51" value="uses" style="edgeLabel;html=1;align=center;verticalAlign=middle;resizable=0;points=[];" vertex="1" connectable="0" parent="vzI2WXNl3NZPLttFvZEj-42">
          <mxGeometry x="-0.0958" y="-2" relative="1" as="geometry">
            <mxPoint as="offset" />
          </mxGeometry>
        </mxCell>
        <mxCell id="vzI2WXNl3NZPLttFvZEj-45" value="" style="endArrow=open;endFill=1;endSize=12;html=1;rounded=0;" edge="1" parent="1" source="vzI2WXNl3NZPLttFvZEj-10" target="vzI2WXNl3NZPLttFvZEj-28">
          <mxGeometry width="160" relative="1" as="geometry">
            <mxPoint x="540" y="350" as="sourcePoint" />
            <mxPoint x="700" y="350" as="targetPoint" />
          </mxGeometry>
        </mxCell>
        <mxCell id="vzI2WXNl3NZPLttFvZEj-49" value="uses" style="edgeLabel;html=1;align=center;verticalAlign=middle;resizable=0;points=[];" vertex="1" connectable="0" parent="vzI2WXNl3NZPLttFvZEj-45">
          <mxGeometry x="0.0589" y="3" relative="1" as="geometry">
            <mxPoint as="offset" />
          </mxGeometry>
        </mxCell>
        <mxCell id="vzI2WXNl3NZPLttFvZEj-46" value="" style="endArrow=open;endFill=1;endSize=12;html=1;rounded=0;" edge="1" parent="1" source="vzI2WXNl3NZPLttFvZEj-10" target="vzI2WXNl3NZPLttFvZEj-18">
          <mxGeometry width="160" relative="1" as="geometry">
            <mxPoint x="540" y="350" as="sourcePoint" />
            <mxPoint x="700" y="350" as="targetPoint" />
          </mxGeometry>
        </mxCell>
        <mxCell id="vzI2WXNl3NZPLttFvZEj-50" value="uses" style="edgeLabel;html=1;align=center;verticalAlign=middle;resizable=0;points=[];" vertex="1" connectable="0" parent="vzI2WXNl3NZPLttFvZEj-46">
          <mxGeometry x="-0.0716" y="2" relative="1" as="geometry">
            <mxPoint as="offset" />
          </mxGeometry>
        </mxCell>
        <mxCell id="vzI2WXNl3NZPLttFvZEj-47" value="&lt;span style=&quot;font-family: Verdana; font-size: 10px; font-weight: 700;&quot;&gt;Front-End&lt;/span&gt;" style="text;html=1;align=center;verticalAlign=middle;resizable=0;points=[];autosize=1;strokeColor=none;fillColor=none;" vertex="1" parent="1">
          <mxGeometry x="491.5" y="115.5" width="80" height="30" as="geometry" />
        </mxCell>
        <mxCell id="vzI2WXNl3NZPLttFvZEj-53" value="&amp;lt;&amp;lt;component&amp;gt;&amp;gt;" style="text;html=1;align=center;verticalAlign=middle;resizable=0;points=[];autosize=1;strokeColor=none;fillColor=none;" vertex="1" parent="1">
          <mxGeometry x="476.5" y="105.5" width="110" height="30" as="geometry" />
        </mxCell>
        <mxCell id="vzI2WXNl3NZPLttFvZEj-54" value="&amp;lt;&amp;lt;component&amp;gt;&amp;gt;" style="text;html=1;align=center;verticalAlign=middle;resizable=0;points=[];autosize=1;strokeColor=none;fillColor=none;" vertex="1" parent="1">
          <mxGeometry x="380" y="320" width="110" height="30" as="geometry" />
        </mxCell>
        <mxCell id="vzI2WXNl3NZPLttFvZEj-55" value="&amp;lt;&amp;lt;services&amp;gt;&amp;gt;" style="text;html=1;align=center;verticalAlign=middle;resizable=0;points=[];autosize=1;strokeColor=none;fillColor=none;" vertex="1" parent="1">
          <mxGeometry x="715" y="330" width="100" height="30" as="geometry" />
        </mxCell>
        <mxCell id="vzI2WXNl3NZPLttFvZEj-56" value="&amp;lt;&amp;lt;database&amp;gt;&amp;gt;" style="text;html=1;align=center;verticalAlign=middle;resizable=0;points=[];autosize=1;strokeColor=none;fillColor=none;" vertex="1" parent="1">
          <mxGeometry x="354.5" y="530" width="100" height="30" as="geometry" />
        </mxCell>
        <mxCell id="vzI2WXNl3NZPLttFvZEj-57" value="" style="rounded=0;orthogonalLoop=1;jettySize=auto;html=1;endArrow=halfCircle;endFill=0;endSize=6;strokeWidth=1;sketch=0;" edge="1" parent="1" source="vzI2WXNl3NZPLttFvZEj-10">
          <mxGeometry relative="1" as="geometry">
            <mxPoint x="490" y="355" as="sourcePoint" />
            <mxPoint x="510" y="500" as="targetPoint" />
          </mxGeometry>
        </mxCell>
        <mxCell id="vzI2WXNl3NZPLttFvZEj-58" value="" style="rounded=0;orthogonalLoop=1;jettySize=auto;html=1;endArrow=oval;endFill=0;sketch=0;sourcePerimeterSpacing=0;targetPerimeterSpacing=0;endSize=10;" edge="1" parent="1" source="vzI2WXNl3NZPLttFvZEj-14">
          <mxGeometry relative="1" as="geometry">
            <mxPoint x="450" y="355" as="sourcePoint" />
            <mxPoint x="510" y="500" as="targetPoint" />
          </mxGeometry>
        </mxCell>
        <mxCell id="vzI2WXNl3NZPLttFvZEj-59" value="" style="ellipse;whiteSpace=wrap;html=1;align=center;aspect=fixed;fillColor=none;strokeColor=none;resizable=0;perimeter=centerPerimeter;rotatable=0;allowArrows=0;points=[];outlineConnect=1;" vertex="1" parent="1">
          <mxGeometry x="465" y="350" width="10" height="10" as="geometry" />
        </mxCell>
        <mxCell id="vzI2WXNl3NZPLttFvZEj-60" value="mysql12&lt;div&gt;pool&amp;nbsp;&lt;/div&gt;" style="text;html=1;align=center;verticalAlign=middle;resizable=0;points=[];autosize=1;strokeColor=none;fillColor=none;" vertex="1" parent="1">
          <mxGeometry x="440" y="480" width="70" height="40" as="geometry" />
        </mxCell>
        <mxCell id="vzI2WXNl3NZPLttFvZEj-61" value="HTTP / REST" style="edgeLabel;html=1;align=center;verticalAlign=middle;resizable=0;points=[];" vertex="1" connectable="0" parent="1">
          <mxGeometry x="563.185783512155" y="290.1538601992452" as="geometry" />
        </mxCell>
        <mxCell id="vzI2WXNl3NZPLttFvZEj-63" value="" style="html=1;whiteSpace=wrap;" vertex="1" parent="1">
          <mxGeometry x="830" y="-210" width="1010" height="280" as="geometry" />
        </mxCell>
        <mxCell id="vzI2WXNl3NZPLttFvZEj-96" style="edgeStyle=orthogonalEdgeStyle;rounded=0;orthogonalLoop=1;jettySize=auto;html=1;exitX=0.75;exitY=0.1;exitDx=0;exitDy=0;exitPerimeter=0;" edge="1" parent="1" source="vzI2WXNl3NZPLttFvZEj-68" target="vzI2WXNl3NZPLttFvZEj-74">
          <mxGeometry relative="1" as="geometry" />
        </mxCell>
        <mxCell id="vzI2WXNl3NZPLttFvZEj-97" style="edgeStyle=orthogonalEdgeStyle;rounded=0;orthogonalLoop=1;jettySize=auto;html=1;exitX=0.5;exitY=0;exitDx=0;exitDy=0;exitPerimeter=0;" edge="1" parent="1" source="vzI2WXNl3NZPLttFvZEj-68" target="vzI2WXNl3NZPLttFvZEj-71">
          <mxGeometry relative="1" as="geometry" />
        </mxCell>
        <mxCell id="vzI2WXNl3NZPLttFvZEj-109" style="edgeStyle=orthogonalEdgeStyle;rounded=0;orthogonalLoop=1;jettySize=auto;html=1;exitX=0.5;exitY=0.5;exitDx=0;exitDy=0;exitPerimeter=0;" edge="1" parent="1" source="vzI2WXNl3NZPLttFvZEj-68" target="vzI2WXNl3NZPLttFvZEj-86">
          <mxGeometry relative="1" as="geometry">
            <Array as="points">
              <mxPoint x="1595" y="-80" />
            </Array>
          </mxGeometry>
        </mxCell>
        <mxCell id="vzI2WXNl3NZPLttFvZEj-111" style="edgeStyle=orthogonalEdgeStyle;rounded=0;orthogonalLoop=1;jettySize=auto;html=1;exitX=0;exitY=0.3333333333333333;exitDx=0;exitDy=0;exitPerimeter=0;" edge="1" parent="1" source="vzI2WXNl3NZPLttFvZEj-68" target="vzI2WXNl3NZPLttFvZEj-70">
          <mxGeometry relative="1" as="geometry" />
        </mxCell>
        <mxCell id="vzI2WXNl3NZPLttFvZEj-112" style="edgeStyle=orthogonalEdgeStyle;rounded=0;orthogonalLoop=1;jettySize=auto;html=1;exitX=0;exitY=0.3333333333333333;exitDx=0;exitDy=0;exitPerimeter=0;" edge="1" parent="1" source="vzI2WXNl3NZPLttFvZEj-68" target="vzI2WXNl3NZPLttFvZEj-84">
          <mxGeometry relative="1" as="geometry" />
        </mxCell>
        <mxCell id="vzI2WXNl3NZPLttFvZEj-114" style="edgeStyle=orthogonalEdgeStyle;rounded=0;orthogonalLoop=1;jettySize=auto;html=1;exitX=0;exitY=0.3333333333333333;exitDx=0;exitDy=0;exitPerimeter=0;" edge="1" parent="1" source="vzI2WXNl3NZPLttFvZEj-68" target="vzI2WXNl3NZPLttFvZEj-72">
          <mxGeometry relative="1" as="geometry" />
        </mxCell>
        <mxCell id="vzI2WXNl3NZPLttFvZEj-68" value="Invitado" style="shape=umlActor;verticalLabelPosition=bottom;verticalAlign=top;html=1;" vertex="1" parent="1">
          <mxGeometry x="1560" y="100.5" width="30" height="60" as="geometry" />
        </mxCell>
        <mxCell id="vzI2WXNl3NZPLttFvZEj-70" value="Navegar pagina web" style="ellipse;whiteSpace=wrap;html=1;" vertex="1" parent="1">
          <mxGeometry x="1430" y="-85" width="70" height="50" as="geometry" />
        </mxCell>
        <mxCell id="vzI2WXNl3NZPLttFvZEj-71" value="Registrarse" style="ellipse;whiteSpace=wrap;html=1;" vertex="1" parent="1">
          <mxGeometry x="1630" y="-30" width="70" height="50" as="geometry" />
        </mxCell>
        <mxCell id="vzI2WXNl3NZPLttFvZEj-102" style="edgeStyle=orthogonalEdgeStyle;rounded=0;orthogonalLoop=1;jettySize=auto;html=1;exitX=1;exitY=1;exitDx=0;exitDy=0;" edge="1" parent="1" source="vzI2WXNl3NZPLttFvZEj-72" target="vzI2WXNl3NZPLttFvZEj-77">
          <mxGeometry relative="1" as="geometry" />
        </mxCell>
        <mxCell id="vzI2WXNl3NZPLttFvZEj-72" value="Iniciar sesion" style="ellipse;whiteSpace=wrap;html=1;" vertex="1" parent="1">
          <mxGeometry x="1160" y="-85" width="60" height="60" as="geometry" />
        </mxCell>
        <mxCell id="vzI2WXNl3NZPLttFvZEj-107" style="edgeStyle=orthogonalEdgeStyle;rounded=0;orthogonalLoop=1;jettySize=auto;html=1;exitX=1;exitY=0.5;exitDx=0;exitDy=0;" edge="1" parent="1" source="vzI2WXNl3NZPLttFvZEj-73" target="vzI2WXNl3NZPLttFvZEj-75">
          <mxGeometry relative="1" as="geometry">
            <Array as="points">
              <mxPoint x="1085" y="-160" />
              <mxPoint x="1085" y="-150" />
            </Array>
          </mxGeometry>
        </mxCell>
        <mxCell id="vzI2WXNl3NZPLttFvZEj-73" value="Ver favoritos" style="ellipse;whiteSpace=wrap;html=1;" vertex="1" parent="1">
          <mxGeometry x="910" y="-185" width="70" height="50" as="geometry" />
        </mxCell>
        <mxCell id="vzI2WXNl3NZPLttFvZEj-106" style="edgeStyle=orthogonalEdgeStyle;rounded=0;orthogonalLoop=1;jettySize=auto;html=1;exitX=0;exitY=1;exitDx=0;exitDy=0;entryX=1;entryY=0;entryDx=0;entryDy=0;" edge="1" parent="1" source="vzI2WXNl3NZPLttFvZEj-75" target="vzI2WXNl3NZPLttFvZEj-76">
          <mxGeometry relative="1" as="geometry" />
        </mxCell>
        <mxCell id="vzI2WXNl3NZPLttFvZEj-75" value="Agregar al carrito" style="ellipse;whiteSpace=wrap;html=1;" vertex="1" parent="1">
          <mxGeometry x="1080" y="-185" width="80" height="60" as="geometry" />
        </mxCell>
        <mxCell id="vzI2WXNl3NZPLttFvZEj-105" style="edgeStyle=orthogonalEdgeStyle;rounded=0;orthogonalLoop=1;jettySize=auto;html=1;exitX=0.5;exitY=1;exitDx=0;exitDy=0;" edge="1" parent="1" source="vzI2WXNl3NZPLttFvZEj-76" target="vzI2WXNl3NZPLttFvZEj-83">
          <mxGeometry relative="1" as="geometry" />
        </mxCell>
        <mxCell id="vzI2WXNl3NZPLttFvZEj-117" value="Comprar" style="edgeLabel;html=1;align=center;verticalAlign=middle;resizable=0;points=[];" vertex="1" connectable="0" parent="vzI2WXNl3NZPLttFvZEj-105">
          <mxGeometry x="-0.0467" y="3" relative="1" as="geometry">
            <mxPoint as="offset" />
          </mxGeometry>
        </mxCell>
        <mxCell id="vzI2WXNl3NZPLttFvZEj-76" value="Ver carrito" style="ellipse;whiteSpace=wrap;html=1;" vertex="1" parent="1">
          <mxGeometry x="990" y="-105" width="70" height="50" as="geometry" />
        </mxCell>
        <mxCell id="vzI2WXNl3NZPLttFvZEj-77" value="Recuperar contraseña" style="ellipse;whiteSpace=wrap;html=1;" vertex="1" parent="1">
          <mxGeometry x="1050" y="-25" width="70" height="50" as="geometry" />
        </mxCell>
        <mxCell id="vzI2WXNl3NZPLttFvZEj-78" value="Agregar favorito" style="ellipse;whiteSpace=wrap;html=1;" vertex="1" parent="1">
          <mxGeometry x="1220" y="-190" width="70" height="60" as="geometry" />
        </mxCell>
        <mxCell id="vzI2WXNl3NZPLttFvZEj-83" value="Realizar compra" style="ellipse;whiteSpace=wrap;html=1;" vertex="1" parent="1">
          <mxGeometry x="930" width="70" height="50" as="geometry" />
        </mxCell>
        <mxCell id="vzI2WXNl3NZPLttFvZEj-113" style="edgeStyle=orthogonalEdgeStyle;rounded=0;orthogonalLoop=1;jettySize=auto;html=1;" edge="1" parent="1" source="vzI2WXNl3NZPLttFvZEj-84" target="vzI2WXNl3NZPLttFvZEj-78">
          <mxGeometry relative="1" as="geometry" />
        </mxCell>
        <mxCell id="vzI2WXNl3NZPLttFvZEj-116" style="edgeStyle=orthogonalEdgeStyle;rounded=0;orthogonalLoop=1;jettySize=auto;html=1;exitX=0;exitY=0;exitDx=0;exitDy=0;" edge="1" parent="1" source="vzI2WXNl3NZPLttFvZEj-84" target="vzI2WXNl3NZPLttFvZEj-75">
          <mxGeometry relative="1" as="geometry">
            <Array as="points">
              <mxPoint x="1310" y="-110" />
              <mxPoint x="1130" y="-110" />
            </Array>
          </mxGeometry>
        </mxCell>
        <mxCell id="vzI2WXNl3NZPLttFvZEj-84" value="Ver detalle Productos" style="ellipse;whiteSpace=wrap;html=1;" vertex="1" parent="1">
          <mxGeometry x="1300" y="-75" width="70" height="50" as="geometry" />
        </mxCell>
        <mxCell id="vzI2WXNl3NZPLttFvZEj-85" value="Ver historia Compra" style="ellipse;whiteSpace=wrap;html=1;" vertex="1" parent="1">
          <mxGeometry x="830" y="-140" width="70" height="50" as="geometry" />
        </mxCell>
        <mxCell id="vzI2WXNl3NZPLttFvZEj-86" value="Filtrar productos" style="ellipse;whiteSpace=wrap;html=1;" vertex="1" parent="1">
          <mxGeometry x="1500" y="-155" width="70" height="50" as="geometry" />
        </mxCell>
        <mxCell id="vzI2WXNl3NZPLttFvZEj-89" value="" style="edgeStyle=orthogonalEdgeStyle;rounded=0;orthogonalLoop=1;jettySize=auto;html=1;" edge="1" parent="1" source="vzI2WXNl3NZPLttFvZEj-62" target="vzI2WXNl3NZPLttFvZEj-75">
          <mxGeometry relative="1" as="geometry" />
        </mxCell>
        <mxCell id="vzI2WXNl3NZPLttFvZEj-98" style="edgeStyle=orthogonalEdgeStyle;rounded=0;orthogonalLoop=1;jettySize=auto;html=1;exitX=0;exitY=1;exitDx=0;exitDy=0;exitPerimeter=0;" edge="1" parent="1" source="vzI2WXNl3NZPLttFvZEj-62" target="vzI2WXNl3NZPLttFvZEj-73">
          <mxGeometry relative="1" as="geometry" />
        </mxCell>
        <mxCell id="vzI2WXNl3NZPLttFvZEj-100" style="edgeStyle=orthogonalEdgeStyle;rounded=0;orthogonalLoop=1;jettySize=auto;html=1;exitX=0;exitY=1;exitDx=0;exitDy=0;exitPerimeter=0;" edge="1" parent="1" source="vzI2WXNl3NZPLttFvZEj-62" target="vzI2WXNl3NZPLttFvZEj-78">
          <mxGeometry relative="1" as="geometry" />
        </mxCell>
        <mxCell id="vzI2WXNl3NZPLttFvZEj-101" style="edgeStyle=orthogonalEdgeStyle;rounded=0;orthogonalLoop=1;jettySize=auto;html=1;exitX=0;exitY=1;exitDx=0;exitDy=0;exitPerimeter=0;" edge="1" parent="1" source="vzI2WXNl3NZPLttFvZEj-62" target="vzI2WXNl3NZPLttFvZEj-76">
          <mxGeometry relative="1" as="geometry">
            <Array as="points">
              <mxPoint x="1030" y="-280" />
              <mxPoint x="1030" y="-192" />
              <mxPoint x="1025" y="-192" />
            </Array>
          </mxGeometry>
        </mxCell>
        <mxCell id="vzI2WXNl3NZPLttFvZEj-103" style="edgeStyle=orthogonalEdgeStyle;rounded=0;orthogonalLoop=1;jettySize=auto;html=1;exitX=0;exitY=1;exitDx=0;exitDy=0;exitPerimeter=0;" edge="1" parent="1" source="vzI2WXNl3NZPLttFvZEj-62" target="vzI2WXNl3NZPLttFvZEj-85">
          <mxGeometry relative="1" as="geometry">
            <Array as="points">
              <mxPoint x="865" y="-280" />
            </Array>
          </mxGeometry>
        </mxCell>
        <mxCell id="vzI2WXNl3NZPLttFvZEj-120" style="edgeStyle=orthogonalEdgeStyle;rounded=0;orthogonalLoop=1;jettySize=auto;html=1;exitX=1;exitY=0.3333333333333333;exitDx=0;exitDy=0;exitPerimeter=0;" edge="1" parent="1" source="vzI2WXNl3NZPLttFvZEj-62" target="vzI2WXNl3NZPLttFvZEj-70">
          <mxGeometry relative="1" as="geometry">
            <Array as="points">
              <mxPoint x="1140" y="-320" />
              <mxPoint x="1465" y="-320" />
            </Array>
          </mxGeometry>
        </mxCell>
        <mxCell id="vzI2WXNl3NZPLttFvZEj-62" value="Comprador" style="shape=umlActor;verticalLabelPosition=bottom;verticalAlign=top;html=1;" vertex="1" parent="1">
          <mxGeometry x="1100" y="-360" width="40" height="80" as="geometry" />
        </mxCell>
        <mxCell id="vzI2WXNl3NZPLttFvZEj-92" value="" style="edgeStyle=orthogonalEdgeStyle;rounded=0;orthogonalLoop=1;jettySize=auto;html=1;exitX=0.5;exitY=0.5;exitDx=0;exitDy=0;exitPerimeter=0;" edge="1" parent="1" source="vzI2WXNl3NZPLttFvZEj-62" target="vzI2WXNl3NZPLttFvZEj-72">
          <mxGeometry relative="1" as="geometry">
            <mxPoint x="1135" y="-270" as="sourcePoint" />
            <mxPoint x="1150" y="-180" as="targetPoint" />
            <Array as="points">
              <mxPoint x="1125" y="-280" />
              <mxPoint x="1190" y="-280" />
            </Array>
          </mxGeometry>
        </mxCell>
        <mxCell id="vzI2WXNl3NZPLttFvZEj-93" value="" style="edgeStyle=orthogonalEdgeStyle;rounded=0;orthogonalLoop=1;jettySize=auto;html=1;" edge="1" parent="1" source="vzI2WXNl3NZPLttFvZEj-62" target="vzI2WXNl3NZPLttFvZEj-86">
          <mxGeometry relative="1" as="geometry">
            <mxPoint x="1145" y="-260" as="sourcePoint" />
            <mxPoint x="1160" y="-170" as="targetPoint" />
            <Array as="points">
              <mxPoint x="1530" y="-280" />
            </Array>
          </mxGeometry>
        </mxCell>
        <mxCell id="vzI2WXNl3NZPLttFvZEj-94" value="" style="edgeStyle=orthogonalEdgeStyle;rounded=0;orthogonalLoop=1;jettySize=auto;html=1;" edge="1" parent="1" source="vzI2WXNl3NZPLttFvZEj-62" target="vzI2WXNl3NZPLttFvZEj-84">
          <mxGeometry relative="1" as="geometry">
            <mxPoint x="1155" y="-250" as="sourcePoint" />
            <mxPoint x="1170" y="-160" as="targetPoint" />
            <Array as="points">
              <mxPoint x="1375" y="-280" />
            </Array>
          </mxGeometry>
        </mxCell>
        <mxCell id="vzI2WXNl3NZPLttFvZEj-119" value="" style="edgeStyle=orthogonalEdgeStyle;rounded=0;orthogonalLoop=1;jettySize=auto;html=1;" edge="1" parent="1" source="vzI2WXNl3NZPLttFvZEj-62" target="vzI2WXNl3NZPLttFvZEj-74">
          <mxGeometry relative="1" as="geometry">
            <mxPoint x="1140" y="-280" as="sourcePoint" />
            <mxPoint x="1460" y="5" as="targetPoint" />
            <Array as="points" />
          </mxGeometry>
        </mxCell>
        <mxCell id="vzI2WXNl3NZPLttFvZEj-74" value="Buscar por barra de busqueda" style="ellipse;whiteSpace=wrap;html=1;" vertex="1" parent="1">
          <mxGeometry x="1720" y="-100" width="90" height="60" as="geometry" />
        </mxCell>
      </root>
    </mxGraphModel>
  </diagram>
</mxfile>
